<?xml version="1.0" encoding="utf-8"?>
<!-- Generator: Adobe Illustrator 15.0.0, SVG Export Plug-In . SVG Version: 6.00 Build 0)  -->
<!DOCTYPE svg PUBLIC "-//W3C//DTD SVG 1.1//EN" "http://www.w3.org/Graphics/SVG/1.1/DTD/svg11.dtd">
<svg version="1.1" id="Calque_1" xmlns="http://www.w3.org/2000/svg" xmlns:xlink="http://www.w3.org/1999/xlink" x="0px" y="0px"
	 width="120px" height="40px" viewBox="0 0 120 40" enable-background="new 0 0 120 40" xml:space="preserve">
<g>
	<path fill="#00B5D8" d="M21.608,17.129c1.931-1.869,3.155-4.397,3.155-6.868C24.763,4.014,20.536,0,13.205,0
		c-1.262,0-3.81,0-6.517,0C2.177,0,0,0,0,0s0,4.654,0,10.327c0,7.033,0,17.14,0,20.099c0,3.436,0.608,5.814,2.031,7.331
		C3.456,39.276,5.627,40,12.754,40c10.439,0,15.869-5.088,15.869-12.533C28.624,22.874,26.436,18.904,21.608,17.129z M5.906,10.22
		V4.959h1.002h4.979c3.204,0,7.274,0.942,7.274,5.181c0,3.783-3.512,5.593-6.707,5.593H5.906V10.22z M13.918,34.854
		c-4.737,0-6.295-0.082-7.092-0.93c-0.835-0.89-0.92-2.582-0.92-5.567c0-3.888,0-7.66,0-7.66h7.976c6.254,0,8.751,3.006,8.751,7.138
		C22.633,32.356,19.464,34.854,13.918,34.854z"/>
	<path fill="#00B5D8" d="M32.206,0.977v25.24C32.222,33.841,38.349,40.015,45.977,40c7.626-0.014,13.8-6.641,13.785-14.266
		c-0.016-7.631-5.714-13.368-13.343-13.354c-3.236,0.004-6.91,1.623-8.52,3.833c0,0-0.014-12.479-0.014-15.237H32.206z
		 M45.965,34.76c-4.548,0.01-8.245-3.818-8.253-8.555c-0.008-4.73,3.672-8.58,8.222-8.589c4.55-0.009,8.247,3.824,8.253,8.556
		C54.197,30.907,50.516,34.751,45.965,34.76z"/>
	<path fill="#00B5D8" d="M111.408,26.203c3.83-2.213,6.402-6.69,5.926-13.304h-5.576c0.398,6.188-2.418,10.952-7.199,10.952
		c-4.779,0-7.574-4.848-7.27-10.952h-5.523c-0.521,6.401,1.926,10.886,5.941,13.364c-3.982,2.335-6.421,6.723-5.941,13.363h5.584
		c-0.285-6.725,2.236-10.952,7.195-10.952c4.957,0,7.568,4.312,7.27,10.952h5.523C117.895,32.73,115.35,28.407,111.408,26.203z"/>
	<path fill="#00B5D8" d="M76.004,12.251c-7.665,0.017-13.859,6.241-13.845,13.902C62.176,33.816,68.395,40.015,76.056,40
		c7.665-0.014,13.861-6.237,13.847-13.9C89.891,18.44,83.667,12.239,76.004,12.251z M76.045,34.739
		c-4.653,0.012-8.434-3.841-8.442-8.596c-0.01-4.754,3.754-8.619,8.407-8.628c4.655-0.008,8.438,3.839,8.442,8.597
		C84.462,30.865,80.7,34.729,76.045,34.739z"/>
</g>
</svg>
