<?xml version="1.0" encoding="utf-8"?>
<!-- Generator: Adobe Illustrator 15.0.0, SVG Export Plug-In . SVG Version: 6.00 Build 0)  -->
<!DOCTYPE svg PUBLIC "-//W3C//DTD SVG 1.1//EN" "http://www.w3.org/Graphics/SVG/1.1/DTD/svg11.dtd">
<svg version="1.1" id="Calque_1" xmlns="http://www.w3.org/2000/svg" xmlns:xlink="http://www.w3.org/1999/xlink" x="0px" y="0px"
	 width="100px" height="100px" viewBox="0 0 100 100" enable-background="new 0 0 100 100" xml:space="preserve">
<path fill="#0065A6" d="M51.429,33.147c-1.316-4.3-3.944-6.937-9.114-6.69l-5.127,8.878c1.037,3.867,5.011,6.162,8.879,5.126
	c0.504-0.135,0.76,5.518-7.147,13.426c-7.907,7.907-14.581,7.107-14.415,6.488c1.037-3.867-1.259-7.842-5.127-8.878L10.5,56.622
	c0.083,5.172,2.429,8.551,6.674,9.784C37.602,72.337,57.369,52.568,51.429,33.147z"/>
<polyline fill="none" stroke="#0065A6" stroke-width="4" stroke-linecap="round" stroke-miterlimit="10" points="73.5,49.5 
	87.643,56.571 73.5,63.643 "/>
<g>
	<path fill="none" stroke="#0065A6" stroke-width="4" stroke-linecap="round" stroke-miterlimit="10" d="M89.5,36.571c0,0-12,0-19,0
		c-6,0-10,4.929-10,9.929s4,10.071,10,10.071c5,0,17-0.071,17-0.071"/>
</g>
</svg>
